<svg xmlns="http://www.w3.org/2000/svg" viewBox="0 0 48 48" width="24" height="24" fill="none" stroke="#000000" stroke-width="2" stroke-linecap="round" stroke-linejoin="round" style="opacity:1;"><path fill="none"    d="M40.07 26.43c0 8.875-7.195 16.07-16.07 16.07S7.93 35.305 7.93 26.43z"/><circle cx="14.411" cy="18.365" r="3.726" fill="none"   /><path fill="none"    d="m23.818 5.577l-2.73.73a2.24 2.24 0 0 0-1.582 2.742l.669 2.496a2.24 2.24 0 0 0 2.741 1.582l2.729-.73a2.24 2.24 0 0 0 1.582-2.742L26.56 7.16a2.24 2.24 0 0 0-2.742-1.582M37.78 19.665l-8.837 2.368l2.368-8.837z"/></svg>